<svg width="321" height="81" viewBox="0 0 321 81" fill="none" xmlns="http://www.w3.org/2000/svg">
<ellipse cx="57" cy="29.5" rx="12" ry="4.5" fill="#5D93F0"/>
<ellipse cx="155" cy="29.5" rx="12" ry="4.5" fill="#5D93F0"/>
<path d="M8.67656 52.6875C9.55156 53 10.4422 53.2578 11.3484 53.4609C12.2547 53.6797 13.1297 53.8516 13.9734 53.9766C14.8328 54.1172 15.6531 54.2109 16.4344 54.2578C17.2156 54.3203 17.9109 54.3516 18.5203 54.3516C20.3641 54.3516 21.9656 54.125 23.325 53.6719C24.7 53.2344 25.8406 52.6406 26.7469 51.8906C27.6687 51.1406 28.3562 50.2656 28.8094 49.2656C29.2625 48.2812 29.4891 47.2344 29.4891 46.125V44.9297C28.8953 45.3359 28.2 45.7266 27.4031 46.1016C26.6062 46.4766 25.7312 46.8047 24.7781 47.0859C23.825 47.3672 22.8094 47.5938 21.7312 47.7656C20.6687 47.9375 19.5672 48.0234 18.4266 48.0234C16.1609 48.0234 14.0672 47.6875 12.1453 47.0156C10.2234 46.3281 8.55937 45.375 7.15312 44.1562C5.74687 42.9219 4.64531 41.4453 3.84843 39.7266C3.06718 38.0078 2.67656 36.1016 2.67656 34.0078C2.67656 31.8672 3.09062 29.9297 3.91875 28.1953C4.74687 26.4453 5.8875 24.9531 7.34062 23.7188C8.80937 22.4844 10.5437 21.5312 12.5437 20.8594C14.5437 20.1875 16.7156 19.8516 19.0594 19.8516C20.0594 19.8516 21.0516 19.9141 22.0359 20.0391C23.0203 20.1641 23.9578 20.3359 24.8484 20.5547C25.7547 20.7734 26.5984 21.0391 27.3797 21.3516C28.1766 21.6484 28.8797 21.9766 29.4891 22.3359V20.3438H36.4266V44.8359C36.4266 47.3516 36.0437 49.5781 35.2781 51.5156C34.5125 53.4531 33.3875 55.0781 31.9031 56.3906C30.4344 57.7188 28.6062 58.7188 26.4187 59.3906C24.2312 60.0781 21.7234 60.4219 18.8953 60.4219C17.8797 60.4219 16.825 60.375 15.7312 60.2812C14.6375 60.2031 13.5359 60.0781 12.4266 59.9062C11.3328 59.75 10.2469 59.5547 9.16875 59.3203C8.10625 59.1016 7.08281 58.8438 6.09843 58.5469L8.67656 52.6875ZM9.96562 33.9375C9.96562 35.0469 10.1844 36.0938 10.6219 37.0781C11.075 38.0469 11.7156 38.8984 12.5437 39.6328C13.3719 40.3516 14.3719 40.9219 15.5437 41.3438C16.7156 41.75 18.0359 41.9531 19.5047 41.9531C20.4578 41.9531 21.4031 41.8672 22.3406 41.6953C23.2937 41.5078 24.2 41.25 25.0594 40.9219C25.9344 40.5938 26.7469 40.1953 27.4969 39.7266C28.2625 39.2578 28.9266 38.7344 29.4891 38.1562V29.0391C28.7859 28.4766 28.0437 28 27.2625 27.6094C26.4812 27.2188 25.6844 26.8984 24.8719 26.6484C24.0594 26.3984 23.2391 26.2188 22.4109 26.1094C21.5828 25.9844 20.7781 25.9219 19.9969 25.9219C18.4031 25.9219 16.9812 26.1328 15.7312 26.5547C14.4969 26.9766 13.45 27.5547 12.5906 28.2891C11.7469 29.0078 11.0984 29.8516 10.6453 30.8203C10.1922 31.7891 9.96562 32.8281 9.96562 33.9375ZM39.4125 34.0781C39.4125 32.2031 39.7953 30.4141 40.5609 28.7109C41.3266 26.9922 42.4281 25.4766 43.8656 24.1641C45.3031 22.8516 47.0609 21.8047 49.1391 21.0234C51.2328 20.2422 53.6078 19.8516 56.2641 19.8516C58.9047 19.8516 61.2797 20.25 63.3891 21.0469C65.5141 21.8281 67.3109 22.9062 68.7797 24.2812C70.2641 25.6562 71.3969 27.2734 72.1781 29.1328C72.975 30.9922 73.3734 32.9844 73.3734 35.1094C73.3734 35.375 73.3656 35.6641 73.35 35.9766C73.35 36.2734 73.3344 36.5469 73.3031 36.7969H47.1469C47.4437 37.625 47.9203 38.3828 48.5766 39.0703C49.2484 39.7578 50.0844 40.3516 51.0844 40.8516C52.0844 41.3516 53.2406 41.7422 54.5531 42.0234C55.8656 42.2891 57.3187 42.4219 58.9125 42.4219C60.5062 42.4219 62.0922 42.2578 63.6703 41.9297C65.2484 41.5859 66.7562 41.1562 68.1937 40.6406L70.5375 45.9375C69.6312 46.3594 68.7094 46.7344 67.7719 47.0625C66.85 47.375 65.8812 47.6406 64.8656 47.8594C63.8656 48.0625 62.8109 48.2188 61.7016 48.3281C60.6078 48.4375 59.4516 48.4922 58.2328 48.4922C55.1234 48.4922 52.3969 48.1172 50.0531 47.3672C47.7094 46.6172 45.7484 45.5938 44.1703 44.2969C42.5922 43 41.4047 41.4766 40.6078 39.7266C39.8109 37.9766 39.4125 36.0938 39.4125 34.0781ZM66.0141 31.3828C65.7641 30.6172 65.3734 29.9062 64.8422 29.25C64.3266 28.5781 63.6781 28 62.8969 27.5156C62.1156 27.0156 61.2094 26.625 60.1781 26.3438C59.1469 26.0625 58.0141 25.9219 56.7797 25.9219C55.4672 25.9219 54.2719 26.0703 53.1937 26.3672C52.1156 26.6641 51.1703 27.0625 50.3578 27.5625C49.5453 28.0625 48.8656 28.6406 48.3187 29.2969C47.7875 29.9531 47.3969 30.6484 47.1469 31.3828H66.0141ZM81.4219 25.5469H74.7422V20.3438H81.4219V11.7422H88.3594V20.3438H95.0391V25.5469H88.3594V48H81.4219V25.5469ZM98.4703 11.3672H111.9C115.822 11.3672 119.228 11.7891 122.119 12.6328C125.009 13.4766 127.4 14.6875 129.291 16.2656C131.197 17.8281 132.611 19.7344 133.533 21.9844C134.47 24.2188 134.939 26.7344 134.939 29.5312C134.939 32.1875 134.478 34.6484 133.556 36.9141C132.634 39.1641 131.228 41.1172 129.337 42.7734C127.447 44.4141 125.056 45.7031 122.166 46.6406C119.275 47.5625 115.869 48.0234 111.947 48.0234L98.4703 48V11.3672ZM113.728 41.5781C115.947 41.5781 117.892 41.2969 119.564 40.7344C121.236 40.1562 122.627 39.3438 123.736 38.2969C124.861 37.25 125.705 35.9844 126.267 34.5C126.83 33.0156 127.111 31.3594 127.111 29.5312C127.111 27.7344 126.83 26.1172 126.267 24.6797C125.705 23.2266 124.861 22 123.736 21C122.627 19.9844 121.236 19.2031 119.564 18.6562C117.892 18.1094 115.947 17.8359 113.728 17.8359H105.9V41.5781H113.728ZM136.613 34.0781C136.613 32.2031 136.995 30.4141 137.761 28.7109C138.527 26.9922 139.628 25.4766 141.066 24.1641C142.503 22.8516 144.261 21.8047 146.339 21.0234C148.433 20.2422 150.808 19.8516 153.464 19.8516C156.105 19.8516 158.48 20.25 160.589 21.0469C162.714 21.8281 164.511 22.9062 165.98 24.2812C167.464 25.6562 168.597 27.2734 169.378 29.1328C170.175 30.9922 170.573 32.9844 170.573 35.1094C170.573 35.375 170.566 35.6641 170.55 35.9766C170.55 36.2734 170.534 36.5469 170.503 36.7969H144.347C144.644 37.625 145.12 38.3828 145.777 39.0703C146.448 39.7578 147.284 40.3516 148.284 40.8516C149.284 41.3516 150.441 41.7422 151.753 42.0234C153.066 42.2891 154.519 42.4219 156.113 42.4219C157.706 42.4219 159.292 42.2578 160.87 41.9297C162.448 41.5859 163.956 41.1562 165.394 40.6406L167.738 45.9375C166.831 46.3594 165.909 46.7344 164.972 47.0625C164.05 47.375 163.081 47.6406 162.066 47.8594C161.066 48.0625 160.011 48.2188 158.902 48.3281C157.808 48.4375 156.652 48.4922 155.433 48.4922C152.323 48.4922 149.597 48.1172 147.253 47.3672C144.909 46.6172 142.948 45.5938 141.37 44.2969C139.792 43 138.605 41.4766 137.808 39.7266C137.011 37.9766 136.613 36.0938 136.613 34.0781ZM163.214 31.3828C162.964 30.6172 162.573 29.9062 162.042 29.25C161.527 28.5781 160.878 28 160.097 27.5156C159.316 27.0156 158.409 26.625 157.378 26.3438C156.347 26.0625 155.214 25.9219 153.98 25.9219C152.667 25.9219 151.472 26.0703 150.394 26.3672C149.316 26.6641 148.37 27.0625 147.558 27.5625C146.745 28.0625 146.066 28.6406 145.519 29.2969C144.988 29.9531 144.597 30.6484 144.347 31.3828H163.214ZM174.45 20.3438H181.387V22.6875C183.231 21.6406 184.989 20.9062 186.661 20.4844C188.348 20.0625 189.997 19.8516 191.606 19.8516C193.716 19.8516 195.669 20.1641 197.466 20.7891C199.262 21.3984 200.817 22.3125 202.13 23.5312C203.442 24.75 204.466 26.2734 205.2 28.1016C205.95 29.9141 206.325 32.0156 206.325 34.4062V48H199.411V35.5312C199.411 34.0156 199.192 32.6641 198.755 31.4766C198.333 30.2734 197.716 29.2656 196.903 28.4531C196.106 27.625 195.13 27 193.973 26.5781C192.833 26.1406 191.552 25.9219 190.13 25.9219C189.38 25.9219 188.606 26 187.809 26.1562C187.028 26.3125 186.255 26.5391 185.489 26.8359C184.739 27.1172 184.012 27.4766 183.309 27.9141C182.606 28.3359 181.966 28.8203 181.387 29.3672V48H174.45V20.3438ZM215.428 25.5469H208.748V20.3438H215.428V11.7422H222.366V20.3438H229.045V25.5469H222.366V48H215.428V25.5469ZM230.297 39.2812C230.297 37.9531 230.586 36.7422 231.164 35.6484C231.742 34.5547 232.609 33.6172 233.766 32.8359C234.922 32.0391 236.359 31.4297 238.078 31.0078C239.812 30.5703 241.828 30.3516 244.125 30.3516C245.828 30.3516 247.617 30.4766 249.492 30.7266C251.383 30.9766 253.328 31.3594 255.328 31.875C255.25 31 254.984 30.1953 254.531 29.4609C254.078 28.7109 253.445 28.0703 252.633 27.5391C251.836 26.9922 250.867 26.5703 249.727 26.2734C248.602 25.9766 247.32 25.8281 245.883 25.8281C245.102 25.8281 244.242 25.875 243.305 25.9688C242.367 26.0625 241.398 26.2031 240.398 26.3906C239.398 26.5781 238.406 26.8125 237.422 27.0938C236.453 27.375 235.547 27.7109 234.703 28.1016L232.594 22.4062C233.641 22.0312 234.758 21.6875 235.945 21.375C237.148 21.0625 238.375 20.7969 239.625 20.5781C240.875 20.3438 242.125 20.1641 243.375 20.0391C244.625 19.9141 245.836 19.8516 247.008 19.8516C252.18 19.8516 256.023 21.1719 258.539 23.8125C261.055 26.4531 262.312 30.5 262.312 35.9531V48H255.375V45.3984C254.656 45.8203 253.867 46.2188 253.008 46.5938C252.164 46.9688 251.242 47.2969 250.242 47.5781C249.242 47.8594 248.164 48.0781 247.008 48.2344C245.867 48.4062 244.656 48.4922 243.375 48.4922C241.219 48.4922 239.32 48.2578 237.68 47.7891C236.055 47.3203 234.695 46.6719 233.602 45.8438C232.508 45.0156 231.68 44.0469 231.117 42.9375C230.57 41.8125 230.297 40.5938 230.297 39.2812ZM237.609 39.0469C237.609 39.5 237.727 39.9375 237.961 40.3594C238.195 40.7656 238.57 41.1328 239.086 41.4609C239.602 41.7734 240.258 42.0312 241.055 42.2344C241.867 42.4219 242.844 42.5156 243.984 42.5156C245.203 42.5156 246.383 42.4062 247.523 42.1875C248.664 41.9688 249.727 41.6797 250.711 41.3203C251.695 40.9609 252.586 40.5469 253.383 40.0781C254.18 39.6094 254.844 39.125 255.375 38.625V37.4062C254.312 37.1094 253.258 36.8594 252.211 36.6562C251.18 36.4531 250.188 36.2969 249.234 36.1875C248.297 36.0625 247.406 35.9766 246.562 35.9297C245.734 35.8828 245.008 35.8594 244.383 35.8594C243.086 35.8594 242.008 35.9453 241.148 36.1172C240.289 36.2891 239.594 36.5234 239.062 36.8203C238.531 37.1016 238.156 37.4375 237.938 37.8281C237.719 38.2188 237.609 38.625 237.609 39.0469ZM268.088 9.11719H275.025V48H268.088V9.11719Z" fill="black"/>
<path d="M279.009 9.68359H288.666C290.072 9.68359 291.291 9.83594 292.322 10.1406C293.353 10.4453 294.209 10.8867 294.888 11.4648C295.568 12.0352 296.072 12.7344 296.4 13.5625C296.736 14.3906 296.904 15.3242 296.904 16.3633C296.904 17.3398 296.74 18.2422 296.412 19.0703C296.084 19.8984 295.58 20.6172 294.9 21.2266C294.228 21.8281 293.377 22.3008 292.345 22.6445C291.314 22.9805 290.095 23.1484 288.689 23.1484L282.724 23.1367V28H279.009V9.68359ZM288.759 19.9258C289.462 19.9258 290.076 19.8438 290.599 19.6797C291.13 19.5078 291.572 19.2695 291.923 18.9648C292.283 18.6523 292.548 18.2773 292.72 17.8398C292.9 17.3945 292.99 16.9023 292.99 16.3633C292.99 15.2773 292.634 14.4336 291.923 13.832C291.22 13.2227 290.166 12.918 288.759 12.918H282.724V19.9258H288.759ZM299.159 9.68359H302.873V14.4648H314.264V9.68359H317.991V28H314.264V17.6406H302.873V28H299.159V9.68359Z" fill="black"/>
<path d="M153.512 59.5756C139.023 73.0407 99.6577 91.7767 58.1084 59" stroke="#5D93F0" stroke-width="7" stroke-linecap="round"/>
</svg>
