<svg width="70" height="70" viewBox="0 0 70 70" fill="none" xmlns="http://www.w3.org/2000/svg">
<rect width="70" height="70" rx="10" fill="#5D93F0"/>
<path d="M30.9393 15.8844C29.1393 14.6656 26.9322 14 24.6607 14C19.0036 14 14.4286 18.0031 14.4286 22.9531V23.5344C14.4286 25.0156 14.825 26.4687 15.575 27.8L18.0929 32.2156C18.575 33.05 18.9072 33.9406 19.1 34.8594L23.0322 54.1531C23.2464 55.2031 24.275 55.9719 25.4857 56.0094C26.6964 56.0469 27.7786 55.3156 28.0572 54.2844L31.1536 42.9125C31.5929 41.3469 33.1786 40.25 35 40.25C36.8214 40.25 38.4072 41.3469 38.8357 42.9031L41.9322 54.275C42.2107 55.3156 43.2929 56.0375 44.5036 56C45.7143 55.9625 46.7429 55.1937 46.9572 54.1437L50.8893 34.85C51.0822 33.9312 51.4143 33.0406 51.8964 32.2062L54.4143 27.7906C55.175 26.4688 55.5607 25.0062 55.5607 23.525V23.3281C55.5607 18.1719 50.7822 13.9906 44.8893 13.9906C42.3072 13.9906 39.8107 14.8156 37.8607 16.2969L37.5179 16.5594L39.6072 17.9844C40.3572 18.4906 40.4857 19.4375 39.9072 20.0937C39.3286 20.75 38.2464 20.8625 37.4964 20.3562L34.8822 18.575L30.9179 15.875L30.9393 15.8844Z" fill="white"/>
</svg>
