<svg width="24" height="24" viewBox="0 0 24 24" fill="none" xmlns="http://www.w3.org/2000/svg">
<path d="M22.4999 11.1749H1.49995C1.04995 11.1749 0.637451 11.5499 0.637451 12.0374C0.637451 12.4874 1.01245 12.8999 1.49995 12.8999H22.4999C22.9499 12.8999 23.3624 12.5249 23.3624 12.0374C23.3624 11.5499 22.9499 11.1749 22.4999 11.1749Z" fill="#111928"/>
<path d="M22.4999 17.5499H1.49995C1.04995 17.5499 0.637451 17.9249 0.637451 18.4124C0.637451 18.8999 1.01245 19.2749 1.49995 19.2749H22.4999C22.9499 19.2749 23.3624 18.8999 23.3624 18.4124C23.3624 17.9249 22.9499 17.5499 22.4999 17.5499Z" fill="#111928"/>
<path d="M1.49995 6.44998H22.4999C22.9499 6.44998 23.3624 6.07498 23.3624 5.58748C23.3624 5.09998 22.9874 4.72498 22.4999 4.72498H1.49995C1.04995 4.72498 0.637451 5.09998 0.637451 5.58748C0.637451 6.07498 1.04995 6.44998 1.49995 6.44998Z" fill="#111928"/>
</svg>
